<?xml version="1.0" encoding="UTF-8"?>
<svg id="Camada_1" xmlns="http://www.w3.org/2000/svg" viewBox="0 0 64 64">
  <defs>
    <style>
      .cls-1 {
        fill: #fafafa;
      }
    </style>
  </defs>
  <path class="cls-1" d="M5.65,21.22c0-6.38,0-12.77-.01-19.15,0-.55.12-.72.7-.78C12.62.66,18.92.3,25.24.1c7.3-.22,14.59-.07,21.87.34,3.53.2,7.06.45,10.58.84.55.06.66.25.65.75-.02,2.48-.01,4.95-.01,7.43,0,9.56-.13,19.11.03,28.67.2,11.46-7.41,21.13-17.7,24.38-9.64,3.04-18.57,1.46-26.39-5.06-4.67-3.89-7.44-8.97-8.37-15.01-.21-1.34-.26-2.67-.26-4.02,0-5.73,0-11.47,0-17.2ZM10.09,44.84c.15.8.43,1.45.71,2.1,5.22,12.19,20,17.05,31.79,11.18.33-.17.41-.37.37-.72-.2-1.5-.37-3.01-.66-4.5-.26-1.35-.83-1.93-2.16-2.16-.66-.12-1.33-.2-2-.29-1.4-.18-2.8-.34-4.2-.51-.16-.02-.38.04-.38-.23,0-.25.21-.24.37-.27.11-.02.22-.01.32-.03,1.98-.23,3.97-.43,5.93-.77,1.25-.22,1.87-.84,2.09-2.07.36-1.94.58-3.9.84-5.86.05-.36-.03-.4-.36-.33-2.17.41-4.19,1.24-6.16,2.22-2.16,1.07-4.27,2.24-6.51,3.14-5.31,2.15-10.7,2.62-16.21.8-1.3-.43-2.53-1.01-3.8-1.7ZM53.89,32.77c-.09-.3-.14-.51-.21-.7-1.36-3.92-3.66-7.19-6.9-9.75-5.85-4.63-12.48-6.09-19.78-4.68-.47.09-.68.24-.53.77.12.41.12.86.18,1.29.26,2.11.45,2.28,2.55,2.5.79.09,1.6.11,2.4.35-.12.2-.27.17-.39.18-.95.13-1.89.25-2.84.37-1.08.14-1.44.48-1.6,1.55-.11.69-.15,1.39-.3,2.06-.12.53.11.63.54.67.91.09,1.81.19,2.72.3.21.03.56-.06.56.28,0,.33-.33.21-.51.23-1.91.26-3.83.49-5.74.75-1.64.22-2.24.81-2.49,2.43-.27,1.75-.5,3.52-.76,5.27-.07.44.06.58.52.47,1.33-.31,2.64-.69,3.91-1.19,2.85-1.12,5.53-2.61,8.35-3.81,4.72-2.02,9.56-2.78,14.62-1.6,1.97.46,3.84,1.19,5.7,2.25ZM45.12,36.63c3.14,0,5.94.53,8.33,1.46.43.17,1,.68,1.27.41.3-.31.03-.99.05-1.51.02-.83-.43-1.21-1.12-1.52-5.36-2.42-10.83-2.79-16.41-.87-2.92,1-5.62,2.53-8.41,3.82-3.55,1.65-7.22,2.74-11.18,2.51-2.4-.14-4.69-.82-6.96-1.56-1.68-.54-1.63-.55-1.46,1.27.07.73.36,1.1,1,1.39,5.69,2.62,11.47,2.84,17.33.65,2.61-.97,5.05-2.31,7.56-3.5,3.29-1.55,6.7-2.61,10.01-2.57ZM46.53,40.02c-.69-.02-1.59.05-2.5.15-.27.03-.47.09-.42.43.32,2.08.49,4.18.92,6.24.21,1.02.9,1.63,1.92,1.79,1.65.25,3.31.44,4.96.68.43.06.67-.06.87-.45,1.11-2.13,1.89-4.37,2.29-6.74.09-.56-.09-.72-.54-.86-2.37-.76-4.78-1.24-7.51-1.22ZM17.08,37.55c.92.05,1.82-.1,2.73-.18.39-.03.49-.21.43-.6-.23-1.59-.43-3.18-.64-4.77-.3-2.26-.75-2.75-3.01-3.12-1.39-.23-2.8-.36-4.19-.55-.26-.04-.4.04-.52.26-1.24,2.22-2.08,4.57-2.46,7.09-.06.41.13.52.45.63,2.34.79,4.74,1.2,7.21,1.23ZM17.54,9.92c0,1,.05,2-.02,3-.04.66.15.84.82.82,1.65-.05,1.65-.02,1.65-1.67q0-1.34,1.37-1.34c1.2,0,1.19,0,1.21,1.2.01.58-.26,1.33.13,1.68.38.35,1.12.06,1.7.11.46.05.59-.13.58-.58-.02-2.06,0-4.13-.01-6.19,0-.96.11-.82-.83-.82-1.57,0-1.57,0-1.57,1.6q0,1.42-1.43,1.42c-1.15,0-1.13,0-1.15-1.17-.01-.6.28-1.42-.13-1.74-.38-.3-1.16-.07-1.77-.12-.42-.03-.57.1-.56.54.03,1.09,0,2.17,0,3.26ZM41,9.92c0,.89,0,1.78,0,2.67q0,1.13,1.12,1.13c1.3,0,1.32,0,1.33-1.3,0-.39.11-.54.51-.52.76.04,1.52-.02,2.24-.31,1.28-.51,1.93-1.6,1.82-3.06-.09-1.25-.85-2.07-2.19-2.39-1.48-.36-2.98-.13-4.47-.08-.38.01-.37.28-.37.55,0,1.11,0,2.21,0,3.32ZM9.56,9.85c0,.93,0,1.86,0,2.8q0,1.07,1.05,1.07c1.29,0,1.31,0,1.33-1.3,0-.4.13-.54.53-.52.63.03,1.26,0,1.87-.17,1.44-.4,2.27-1.51,2.23-2.97-.04-1.43-.78-2.27-2.31-2.63-1.44-.34-2.89-.11-4.33-.07-.38.01-.37.28-.37.55,0,1.08,0,2.17,0,3.25ZM48.57,11.84c.09.53.17.96.23,1.38.03.23.15.33.36.38,1.44.36,2.87.46,4.3-.03.97-.33,1.56-1,1.62-2.06.06-1.02-.38-1.65-1.47-2.13-.58-.25-1.18-.43-1.76-.67-.33-.13-.66-.32-.58-.76.08-.44.47-.47.81-.5.65-.06,1.3.02,1.93.2.38.11.59.08.48-.41-.06-.25-.07-.52-.09-.77-.02-.19-.09-.31-.31-.35-1.38-.24-2.76-.37-4.08.24-.7.32-1.12.86-1.19,1.66-.07.85.23,1.53.96,2,.5.32,1.06.49,1.61.69.3.11.61.24.89.39.25.13.37.36.33.65-.04.3-.24.45-.51.52-.45.13-.9.11-1.36.06-.71-.08-1.39-.3-2.16-.49ZM43.81,57.46c3.2-1.9,5.71-4.26,7.73-7.37-1.87.22-3.59.37-5.29.73-.72.15-1.32.56-1.54,1.26-.55,1.69-.62,3.47-.9,5.37ZM20.07,20.33c-3.15,1.89-5.59,4.2-7.56,7.22,1.85-.24,3.55-.37,5.22-.74.74-.17,1.31-.63,1.53-1.37.46-1.6.58-3.26.82-5.11ZM31.08,9.92c0,1.11.01,2.21,0,3.31,0,.36.09.5.47.49,1.15-.02,2.3-.02,3.44,0,.38,0,.55-.12.6-.49.03-.21.09-.42.15-.63.08-.29-.03-.4-.32-.39-.39.01-.78-.03-1.17.01-.61.07-.83-.12-.81-.77.05-1.6,0-3.21.02-4.81,0-.38-.08-.56-.5-.53-.47.03-.95.03-1.43,0-.38-.02-.47.13-.47.49.02,1.1,0,2.21,0,3.31ZM26.79,9.92c0,.65,0,1.3,0,1.95,0,1.97,0,1.97,2.02,1.86.34-.02.44-.13.44-.46-.01-2.23-.01-4.46,0-6.69,0-.33-.09-.47-.44-.46-.52.02-1.04.03-1.56,0-.38-.02-.48.13-.47.49.02,1.1,0,2.21,0,3.31ZM39.16,9.91c0-.65.02-1.3,0-1.95-.03-.6.28-1.41-.13-1.73-.39-.3-1.16-.07-1.77-.11-.44-.03-.55.14-.55.55.02,1.71,0,3.43,0,5.14,0,2,0,1.99,1.98,1.91.38-.01.48-.13.47-.49-.02-1.11,0-2.21,0-3.32ZM26.04,18.36c.06-.42-.1-.48-.48-.37-1.46.42-2.87.98-4.24,1.64-.33.16-.45.35-.39.71.1.58.19,1.15.25,1.73.03.29.14.37.41.34.97-.13,1.93-.24,2.9-.39.55-.09.99-.38,1.1-.96.17-.89.3-1.79.45-2.69ZM26.04,26.82c-.14-.85-.27-1.71-.42-2.56-.11-.63-.5-1-1.13-1.09-.92-.13-1.85-.22-2.76-.38-.4-.07-.46.08-.4.4.11.62.2,1.24.33,1.85.21.99.84,1.6,1.83,1.8.7.14,1.41.21,2.12.34.32.06.46-.02.43-.36Z"/>
  <path class="cls-1" d="M37.8,51.19c.1.69.21,1.39.31,2.08.15,1.13.38,1.34,1.52,1.48.74.09,1.49.12,2.22.45-.78.11-1.56.22-2.33.32-1.04.14-1.24.35-1.39,1.38-.1.69-.2,1.37-.31,2.06,0,.03-.06.04-.13.08-.24-.62-.24-1.27-.32-1.89-.17-1.28-.31-1.46-1.57-1.64-.72-.11-1.45-.2-2.17-.36.64-.3,1.35-.29,2.02-.38,1.36-.18,1.55-.35,1.71-1.72.04-.32.09-.64.13-.96.04-.3.1-.59.14-.89.06,0,.12,0,.18,0Z"/>
  <path class="cls-1" d="M43.59,8.94c0-.37.03-.74,0-1.11-.04-.44.18-.5.54-.47,1.1.09,1.64.59,1.65,1.54,0,.99-.58,1.58-1.62,1.66-.4.03-.62-.04-.57-.51.04-.37,0-.74,0-1.11Z"/>
  <path class="cls-1" d="M12.07,8.95c0-.37.02-.74,0-1.1-.02-.36.1-.5.48-.5,1.13,0,1.74.54,1.74,1.54,0,1.06-.6,1.64-1.71,1.67-.4.01-.54-.12-.51-.52.03-.37,0-.73,0-1.1Z"/>
</svg>