<?xml version="1.0" encoding="UTF-8"?>
<svg id="Camada_1" xmlns="http://www.w3.org/2000/svg" viewBox="0 0 64 64">
  <defs>
    <style>
      .cls-1 {
        fill: #fafafa;
      }
    </style>
  </defs>
  <g id="SVGRepo_iconCarrier">
    <g>
      <path class="cls-1" d="M8.58,50.6c-2.81,0-5.4-1.5-6.79-3.94-1.37-2.42-1.29-5.41.21-7.75l13.98-21.95c1.46-2.4,4.09-3.83,6.9-3.75,2.81.07,5.36,1.64,6.68,4.12,1.3,2.46,1.14,5.43-.42,7.74l-13.97,21.95c-1.44,2.24-3.93,3.59-6.59,3.58h0Z"/>
      <path class="cls-1" d="M32.55,50.6c-2.82,0-5.41-1.51-6.77-3.93-1.36-2.42-1.28-5.39.21-7.73l13.95-21.9c1.44-2.44,4.08-3.9,6.9-3.83,2.84.06,5.42,1.65,6.72,4.14,1.29,2.49,1.1,5.47-.5,7.78l-13.95,21.9c-1.43,2.23-3.91,3.58-6.56,3.57Z"/>
      <ellipse class="cls-1" cx="55.98" cy="43.74" rx="7.19" ry="7.04"/>
    </g>
  </g>
</svg>