<?xml version="1.0" encoding="UTF-8"?>
<svg id="Camada_1" xmlns="http://www.w3.org/2000/svg" viewBox="0 0 64 64">
  <defs>
    <style>
      .cls-1 {
        fill: #fafafa;
      }
    </style>
  </defs>
  <path class="cls-1" d="M-.05,24.07c2.25-7.31,8.47-9.21,14.84-10.78,5.24-1.29,10.61-1.71,16.01-1.83,7-.17,13.98.13,20.96.64,3.77.28,7.53.75,11.3,1.13.42.04.96.09.98.49.02.48-.54.41-.93.47-11.59,1.88-23.04,4.35-34.03,8.56-3.51,1.34-6.88,3.07-9.9,5.39-3.75,2.87-4.75,6.65-2.88,10.99,1.36,3.18,3.59,5.73,6.01,8.14,1.44,1.43,2.93,2.79,4.54,4.02.35.27.92.52.67,1.02-.32.64-.79.02-1.1-.12-6.26-2.8-12.18-6.16-17.4-10.68-4.07-3.53-7.31-7.61-8.69-12.94-.06-.23-.06-.51-.37-.58v-3.9Z"/>
</svg>