<?xml version="1.0" encoding="UTF-8"?>
<svg id="Camada_1" xmlns="http://www.w3.org/2000/svg" viewBox="0 0 64 64">
  <defs>
    <style>
      .cls-1 {
        fill: #fafafa;
      }
    </style>
  </defs>
  <path class="cls-1" d="M27.95,2.53h8.18c.19.52.66.35,1.03.42,9.89,2,17.08,7.49,21.58,16.55,1.39,2.8,1.89,5.86,2.76,8.8v8.18c-.72.65-.6,1.6-.8,2.41-2.95,12.35-13.84,21.63-26.48,22.5-15.98,1.09-29.4-10.51-31.48-25.84C.8,21.19,10.61,6.87,25.3,3.29c.89-.22,1.91-.03,2.66-.76ZM27.35,40.84c1.2,5.76,2.32,11.21,3.51,16.65.17.79-.03,2.19,1,2.17.96-.03.79-1.41.96-2.23,1.17-5.43,2.29-10.87,3.47-16.48,3.71,1.93,6.73,4.67,10.37,6.32.12-.14.25-.27.37-.41-2.14-3.34-4.27-6.68-6.52-10.2,5.71-1.19,11.16-2.31,16.59-3.49.78-.17,2.18.06,2.14-1.01-.04-.95-1.42-.79-2.23-.96-5.42-1.17-10.86-2.3-16.46-3.47,1.98-3.69,4.69-6.72,6.34-10.36-.14-.13-.28-.25-.41-.38-3.34,2.15-6.68,4.29-10.19,6.54-1.19-5.72-2.3-11.18-3.49-16.63-.17-.78.04-2.19-1.01-2.15-.94.03-.8,1.4-.97,2.22-1.17,5.43-2.29,10.87-3.47,16.48-3.67-2-6.76-4.63-10.33-6.37-.13.15-.27.31-.4.46,2.14,3.34,4.29,6.68,6.52,10.16-1.12.24-1.98.43-2.83.61-4.79,1.01-9.59,1.99-14.37,3.04-.58.13-1.64-.04-1.6.88.03.87,1.1.56,1.67.85.23.12.53.09.8.15,5.37,1.14,10.74,2.28,16.38,3.48-1.9,2.91-3.68,5.62-5.43,8.36-.38.6-1.34,1.33-.79,1.9.71.73,1.43-.34,2.05-.72,2.71-1.69,5.36-3.46,8.34-5.4ZM56.46,35.78c-.04-.24.28-.75-.36-.85-.42-.07-.86.07-1.02.5-.16.44-.18.93-.29,1.39-1.98,8.35-6.9,14.18-14.93,17.29-1.38.54-2.87.83-4.33,1.14-.68.15-.95.52-.92,1.12.03.65.55.44.92.38,10.36-1.52,19.24-9.74,20.93-20.97ZM7.3,28.48c-.01.32-.4.92.41.98.48.03.94-.17,1.03-.77.06-.4.15-.8.24-1.2,1.71-7.68,6.18-13.16,13.25-16.56,1.85-.89,3.82-1.42,5.83-1.78.73-.13,1.19-.47,1.02-1.2-.18-.75-.78-.27-1.18-.22-10.1,1.23-19.52,10.69-20.59,20.75ZM28.34,56.75c.15.01.75.34.77-.47.01-.48-.21-.92-.81-1-.47-.07-.93-.19-1.39-.29-7.37-1.68-12.67-5.97-16.08-12.67-1.03-2.02-1.63-4.17-2.04-6.38-.12-.63-.39-1.04-1.03-1.02-.82.03-.47.62-.42,1.05.95,9.91,10.82,19.8,21.01,20.79ZM35.54,7.66c-.28-.01-.89-.38-.94.42-.03.47.19.93.8,1.01.4.06.8.16,1.19.26,9.81,2.36,15.82,8.51,18.19,18.28.1.4.11.81.23,1.2.17.54.66.72,1.14.62.6-.13.31-.64.27-1-.9-9.85-10.81-19.76-20.88-20.78ZM26.93,15.53c.31-.98.02-1.37-.83-1.1-1.42.45-2.78,1.05-4.03,1.88-.58.39-.76.78-.04,1.18.85.46,1.5,1.37,2.73.9,1.43-.55,2.24-1.45,2.17-2.86ZM26.84,48.96c.05-1.22-.6-2.26-2.19-2.86-1.52-.58-2.55.34-3.08,1.24-.47.79.87,1.12,1.51,1.46.89.48,1.85.84,2.8,1.19.54.2,1.13.26.96-1.04ZM37.55,50.08c1.49-.46,2.96-1.14,4.32-2.04.43-.28.51-.63.07-.96-1.02-.77-1.92-1.48-3.45-.8-1.6.71-1.61,2.02-1.86,3.29-.11.57.41.58.91.51ZM18.18,24.03c-.3-.78-.69-1.82-1.53-2.13-.64-.24-.94.82-1.24,1.39-.5.96-.91,1.96-1.3,2.97-.16.41-.34.93.39,1.1,1.54.34,3.76-1.57,3.68-3.32ZM47.31,21.77c-.24.09-.41.1-.47.19-.54.76-1.48,1.44-1.29,2.4.2,1,.51,2.18,1.67,2.58.73.25,1.82.59,2.26.25.72-.55-.06-1.48-.32-2.19-.33-.87-.82-1.69-1.28-2.51-.15-.27-.39-.5-.57-.72ZM18.28,40.11c-.32-.62-.65-1.28-1-1.92-.64-1.18-2.07-1.3-2.84-1.01-1.11.41-.02,1.47.15,2.23.13.58.42,1.16.78,1.64.4.55.49,1.78,1.35,1.44.81-.32,1.24-1.35,1.56-2.38ZM37.56,14.41c-.53-.07-.86-.06-.95.53-.22,1.51,1.57,3.7,3.09,3.59.97-.07,1.7-.77,2.39-1.41.23-.21-.03-.5-.24-.66-1.33-.97-2.84-1.54-4.29-2.05ZM48.53,37.29c-1.67,0-2.14.44-2.82,2.22-.55,1.41.47,2.37,1.25,2.88.9.59,1.09-.81,1.47-1.39.44-.66.7-1.45,1.02-2.18.48-1.09.26-1.69-.92-1.52Z"/>
  <path class="cls-1" d="M31.61,39.38c-3.96-.07-7.01-3.26-6.97-7.29.04-4.05,3.3-7.16,7.4-7.08,3.97.08,7.03,3.29,6.98,7.29-.06,4.05-3.3,7.15-7.41,7.07Z"/>
</svg>