<?xml version="1.0" encoding="UTF-8"?>
<svg id="Camada_1" xmlns="http://www.w3.org/2000/svg" viewBox="0 0 64 64">
  <defs>
    <style>
      .cls-1 {
        fill: #fafafa;
      }
    </style>
  </defs>
  <path class="cls-1" d="M5.55,51.88l2.75,4.75c.57,1,1.39,1.78,2.36,2.36,2.76-3.5,4.68-6.19,5.76-8.07,1.1-1.9,2.45-4.88,4.05-8.92-4.32-.57-7.59-.85-9.82-.85s-5.41.28-9.82.85c0,1.11.29,2.21.86,3.21l3.86,6.68Z"/>
  <path class="cls-1" d="M53.35,58.99c.96-.57,1.78-1.36,2.36-2.36l1.14-1.96,5.46-9.46c.57-1,.86-2.11.86-3.21-4.43-.57-7.7-.85-9.8-.85-2.26,0-5.52.28-9.8.85,1.58,4.07,2.92,7.04,4,8.92,1.09,1.9,3.02,4.59,5.78,8.07Z"/>
  <path class="cls-1" d="M32,22.01c3.19-3.86,5.4-6.83,6.6-8.92.97-1.68,2.04-4.37,3.21-8.07-.96-.57-2.07-.86-3.21-.86h-13.21c-1.14,0-2.25.32-3.21.86,1.49,4.24,2.75,7.25,3.78,9.05,1.15,1.98,3.16,4.63,6.03,7.95Z"/>
  <path class="cls-1" d="M43.53,42h-23.06l-9.82,16.99c.96.57,2.07.86,3.21.86h36.27c1.14,0,2.25-.32,3.21-.86l-9.82-16.99Z"/>
  <path class="cls-1" d="M32,22.01L22.18,5.01c-.96.57-1.78,1.36-2.36,2.36L1.69,38.78c-.57,1-.86,2.11-.86,3.21h19.63l11.53-19.99Z"/>
  <path class="cls-1" d="M53.24,23.08l-9.07-15.71c-.57-1-1.39-1.78-2.36-2.36l-9.82,16.99,11.53,19.99h19.6c0-1.11-.29-2.21-.86-3.21l-9.03-15.71Z"/>
</svg>