<?xml version="1.0" encoding="UTF-8"?>
<svg id="Camada_1" xmlns="http://www.w3.org/2000/svg" viewBox="0 0 64 64">
  <defs>
    <style>
      .cls-1 {
        fill: #fafafa;
      }
    </style>
  </defs>
  <path class="cls-1" d="M58.29,21.04c0,5.66-.1,11.32.02,16.97.25,12.42-8.51,22.25-19.5,24.88-9.97,2.39-18.86.13-26.2-7.18-4-3.98-6.22-8.9-6.8-14.54-.09-.91-.11-1.81-.11-2.72,0-12.07,0-24.14-.01-36.21,0-.53.1-.72.68-.77,4.98-.5,9.98-.81,14.98-1.04,5.57-.25,11.13-.3,16.7-.17,4.92.12,9.83.37,14.74.76,1.63.13,3.26.34,4.9.46.52.04.62.23.62.71-.01,6.28,0,12.57,0,18.85ZM10.26,44.89s-.07-.07-.08-.07c-.07.05-.04.1.01.14.04.17.07.34.13.5,1.18,3.47,3.12,6.45,5.83,8.89,5.24,4.71,11.42,6.61,18.4,5.96,2.79-.26,5.46-1.06,7.97-2.31.23-.12.53-.16.46-.58-.24-1.49-.41-2.99-.66-4.47-.25-1.53-.87-2.12-2.42-2.33-1.92-.26-3.85-.5-5.77-.76-.2-.03-.57.12-.56-.25,0-.37.39-.25.61-.28,1.92-.25,3.86-.46,5.78-.75,1.58-.24,2.13-.81,2.37-2.37.28-1.83.52-3.67.78-5.5.05-.35-.02-.44-.4-.36-1.83.37-3.57,1-5.25,1.79-2.34,1.1-4.6,2.38-6.99,3.38-4.79,2.01-9.71,2.68-14.81,1.46-1.9-.45-3.67-1.23-5.41-2.09ZM31.58,22.55c0,.07.01.13.02.2-.33.05-.66.09-.99.14-.85.12-1.71.24-2.56.35-.73.09-1.1.54-1.21,1.23-.12.77-.17,1.55-.35,2.3-.12.51.09.59.49.63.94.09,1.89.2,2.83.31.19.02.5-.05.5.26,0,.34-.31.23-.49.26-2.11.29-4.25.45-6.34.86-1.03.2-1.64.85-1.83,1.85-.35,1.86-.57,3.75-.81,5.63-.07.53.06.62.56.5,1.82-.4,3.56-1.01,5.27-1.76,2.41-1.06,4.74-2.28,7.17-3.3,4.82-2.02,9.75-2.67,14.86-1.35,1.76.45,3.42,1.15,5.1,2.07-.16-.84-.46-1.53-.77-2.2-3.39-7.25-9.13-11.45-16.91-12.96-3-.58-6.01-.47-9.01.12-.53.1-.78.25-.62.87.18.68.21,1.4.32,2.11.15.99.47,1.29,1.45,1.43,1.1.15,2.21.29,3.31.43ZM9.24,38.89c-.08.67.06,1.28.06,1.9,0,.56.23.84.72,1.08,5.46,2.62,11.07,2.95,16.79,1.06,2.81-.93,5.41-2.36,8.07-3.65,6.44-3.13,12.96-3.66,19.61-.72.07.03.16.03.26.05.09-.61-.09-1.18-.06-1.75.03-.6-.23-.94-.77-1.19-5.92-2.8-11.93-2.99-18-.54-2.48,1-4.85,2.25-7.27,3.39-5.41,2.57-10.95,3.26-16.69,1.26-.89-.31-1.8-.57-2.72-.87ZM46.75,39.98c-.89-.02-1.77.08-2.65.14-.39.03-.52.15-.47.56.25,1.99.48,3.98.85,5.95.2,1.07.87,1.73,1.95,1.9,1.69.25,3.38.45,5.07.68.32.04.52-.03.68-.32,1.18-2.16,1.96-4.45,2.37-6.87.07-.43-.04-.65-.49-.8-2.37-.78-4.8-1.23-7.3-1.24ZM17.1,37.53c.93.03,1.85-.08,2.77-.19.22-.03.46-.03.41-.41-.27-1.9-.44-3.81-.82-5.69-.3-1.52-.87-2.04-2.4-2.25-1.51-.21-3.03-.39-4.55-.61-.33-.05-.5.05-.66.34-1.18,2.13-1.96,4.39-2.38,6.79-.07.43,0,.65.46.8,2.33.76,4.72,1.18,7.17,1.21ZM17.59,10.04c0,1.12.01,2.24,0,3.37,0,.33.09.46.44.45.49-.02.99-.03,1.49,0,.36.02.5-.09.48-.47-.03-.69,0-1.38-.01-2.07,0-.32.08-.47.44-.46.56.02,1.12.03,1.68,0,.39-.02.48.14.46.49-.02.67.02,1.34-.01,2.01-.02.41.13.53.52.51.45-.03.91-.04,1.36,0,.46.04.58-.12.58-.58-.02-2.03-.01-4.06-.01-6.08q0-.9-.88-.9-1.56,0-1.56,1.59,0,1.42-1.39,1.42-1.18,0-1.18-1.19c0-1.92,0-1.91-1.97-1.82-.35.02-.44.13-.43.45.02,1.1,0,2.2,0,3.3ZM40.98,10.04c0,.91,0,1.81,0,2.72q0,1.09,1.08,1.09c1.31,0,1.33,0,1.35-1.32,0-.41.15-.52.53-.5.71.04,1.42-.01,2.1-.26,1.29-.46,2.03-1.53,1.97-2.87-.06-1.42-.78-2.26-2.25-2.59-1.45-.33-2.92-.14-4.38-.07-.35.02-.41.21-.41.51.01,1.1,0,2.2,0,3.3ZM9.59,10.05c0,.93,0,1.85,0,2.78q0,1.02,1.02,1.02c1.36,0,1.38,0,1.4-1.34,0-.43.18-.5.54-.48.71.04,1.42-.02,2.1-.27,1.36-.49,2.03-1.56,1.93-3.07-.08-1.26-.84-2.08-2.24-2.38-1.45-.31-2.92-.14-4.38-.07-.37.02-.38.24-.38.52,0,1.1,0,2.2,0,3.3ZM48.55,11.96c.07.55.13.99.19,1.44.03.21.17.28.35.32,1.43.35,2.86.45,4.27-.01,1.05-.34,1.61-1.07,1.66-2.07.05-.97-.42-1.65-1.5-2.1-.59-.25-1.21-.44-1.81-.69-.3-.13-.6-.32-.52-.72.08-.38.42-.47.75-.5.67-.06,1.33.01,1.99.18.14.04.39.09.42.05.15-.3.07-.63,0-.94-.05-.22.06-.55-.33-.61-1.29-.2-2.57-.31-3.83.13-.88.31-1.4.95-1.45,1.87-.05.9.38,1.59,1.19,1.98.56.27,1.16.45,1.74.69.41.17.94.3.87.89-.08.62-.64.61-1.11.65-.23.02-.47-.01-.71-.03-.71-.06-1.39-.26-2.17-.51ZM43.77,57.22c.14-.01.19,0,.23-.02,2.87-1.68,5.25-3.89,7.13-6.63.08-.12.24-.24.13-.4-.09-.13-.28-.09-.42-.08-1.54.18-3.08.32-4.6.64-1,.21-1.58.87-1.75,1.85-.26,1.52-.48,3.05-.72,4.63ZM12.54,27.59c1.92-.29,3.73-.35,5.48-.84.66-.18,1.11-.68,1.29-1.35.43-1.6.55-3.25.8-5.02-3.1,1.84-5.57,4.15-7.57,7.2ZM31.08,10.03c0,1.08.02,2.16,0,3.23-.01.43.07.61.55.59,1.12-.04,2.24-.03,3.36,0,.39.01.55-.13.6-.48.03-.19.08-.38.14-.56.1-.32.02-.48-.36-.47-.45.02-.91-.02-1.36.01-.42.03-.56-.11-.55-.55.03-1.23.03-2.46,0-3.69-.01-.59.28-1.42-.13-1.72-.42-.3-1.2-.08-1.82-.12-.35-.02-.44.11-.43.44.02,1.1,0,2.2,0,3.3ZM26.82,10.06c0,.65,0,1.29,0,1.94,0,1.95,0,1.95,2,1.85.33-.02.44-.11.44-.45-.01-2.22-.01-4.44,0-6.66,0-.33-.08-.47-.43-.46-.52.02-1.04.03-1.55,0-.38-.02-.47.12-.47.48.02,1.1,0,2.2,0,3.3ZM39.13,10.06c0-.65.02-1.3,0-1.94-.02-.6.28-1.41-.13-1.73-.38-.3-1.16-.07-1.75-.11-.44-.04-.54.14-.54.55.02,1.71,0,3.41.01,5.12,0,.62-.28,1.46.13,1.79.39.31,1.2.08,1.82.12.38.02.47-.13.47-.48-.02-1.1,0-2.2,0-3.3ZM26.06,17.97c-1.72.44-3.26,1.03-4.75,1.77-.22.11-.4.21-.35.53.1.61.17,1.24.24,1.85.03.25.11.39.4.34.98-.14,1.96-.25,2.94-.4.5-.08.9-.34,1.03-.85.26-1.04.38-2.1.49-3.24ZM21.69,22.83c-.39-.15-.38.2-.31.63.09.51.16,1.02.26,1.53.21,1.06.85,1.72,1.92,1.91.68.12,1.37.19,2.04.32.36.07.47-.02.42-.38-.14-.85-.24-1.71-.39-2.56-.1-.56-.45-.93-1.03-1.02-.89-.14-1.79-.27-2.91-.44Z"/>
  <path class="cls-1" d="M37.79,51.09c.1.69.21,1.37.3,2.06.14,1.1.38,1.34,1.49,1.48.74.09,1.49.19,2.35.3-.43.34-.86.22-1.22.31-.42.1-.85.12-1.28.17-.95.12-1.2.37-1.33,1.35-.09.68-.19,1.36-.29,2.05,0,.03-.05.06-.13.15-.26-.65-.25-1.31-.35-1.94-.21-1.33-.26-1.42-1.63-1.62-.71-.11-1.42-.2-2.12-.36.68-.29,1.41-.28,2.11-.38,1.28-.18,1.46-.33,1.63-1.63.08-.64.19-1.28.29-1.93h.17Z"/>
  <path class="cls-1" d="M43.54,9.09c0-.26,0-.52,0-.77,0-.83.03-.86.87-.75,1.01.13,1.5.86,1.28,1.91-.17.83-1.1,1.41-1.92,1.22-.25-.06-.23-.21-.23-.38,0-.41,0-.82,0-1.23Z"/>
  <path class="cls-1" d="M12.14,9.1c0-.34.03-.69,0-1.03-.06-.49.18-.57.6-.54,1.08.08,1.65.64,1.59,1.61-.06,1.03-.76,1.62-1.81,1.56-.28-.01-.38-.11-.37-.38.01-.41,0-.82,0-1.22Z"/>
</svg>