<?xml version="1.0" encoding="UTF-8"?>
<svg id="Camada_1" xmlns="http://www.w3.org/2000/svg" viewBox="0 0 64 64">
  <defs>
    <style>
      .cls-1 {
        fill: #fafafa;
      }
    </style>
  </defs>
  <path class="cls-1" d="M15.85,31.37c0,7.38-.01,14.76,0,22.14,0,.58-.13.73-.72.72-2.77-.04-5.55-.01-8.33-.02-2.33,0-3.68-1.02-4.34-3.27,0-.03-.05-.06-.07-.08,0-9.87,0-19.73,0-29.6.23.17.46.34.7.51,4.24,3.17,8.48,6.34,12.71,9.51,0,.03.02.06.05.08Z"/>
  <path class="cls-1" d="M15.8,31.28c-4.24-3.17-8.48-6.34-12.71-9.51-.23-.17-.46-.34-.7-.51,0-2.16,0-4.32,0-6.48.2-.11.16-.33.21-.51,1.08-3.94,5.71-5.75,9.1-3.49,1.42.95,2.74,2.04,4.11,3.07,0,5.81,0,11.62,0,17.43Z"/>
  <path class="cls-1" d="M15.8,31.28c0-5.81,0-11.62,0-17.43,2.79,2.08,5.58,4.16,8.37,6.24,2.47,1.84,4.93,3.69,7.38,5.55.35.26.55.24.89-.01,5.04-3.8,10.09-7.58,15.14-11.36.18-.14.38-.26.57-.39,0,.27.01.54.01.81,0,5.54,0,11.08.01,16.62,0,.03-.01.05-.03.07-2.85,2.13-5.71,4.26-8.56,6.39-2.39,1.79-4.78,3.57-7.15,5.38-.33.25-.53.26-.87,0-5.01-3.78-10.03-7.54-15.06-11.3-.22-.16-.44-.31-.66-.47-.03-.02-.04-.05-.05-.08Z"/>
  <path class="cls-1" d="M48.15,31.37s.03-.04.03-.07c.06-.04.13-.08.19-.12,4.4-3.3,8.81-6.59,13.21-9.89,0,.21.02.42.02.63,0,9.28,0,18.56,0,27.84,0,2.8-1.64,4.45-4.44,4.45-2.77,0-5.55-.02-8.32.01-.54,0-.7-.1-.7-.68.02-7.39.01-14.79,0-22.18Z"/>
  <path class="cls-1" d="M61.58,21.29c-4.4,3.3-8.8,6.59-13.21,9.89-.06.05-.13.08-.19.12,0-5.54,0-11.08-.01-16.62,0-.27,0-.54-.01-.81,1.4-1.05,2.75-2.18,4.21-3.13,1.93-1.26,4.01-1.28,6.03-.2,2.03,1.08,3.11,2.84,3.18,5.14.06,1.87,0,3.74,0,5.6Z"/>
</svg>