<?xml version="1.0" encoding="UTF-8"?>
<svg id="Camada_1" xmlns="http://www.w3.org/2000/svg" viewBox="0 0 64 64">
  <defs>
    <style>
      .cls-1 {
        fill: #68686a;
      }

      .cls-2 {
        fill: #a5a8aa;
      }

      .cls-3 {
        fill: #2c2a2a;
      }

      .cls-4 {
        fill: #4f4f51;
      }

      .cls-5 {
        fill: #3d3c3d;
      }

      .cls-6 {
        fill: #fafafa;
      }
    </style>
  </defs>
  <g>
    <path class="cls-3" d="M10.29,18.42l5.23-2.22,5.14-1.71,3.66-.47s.8,3.9.79,4.06-1.54,2.21-1.81,2.72-.75,1.74-.86,1.83-.71.17-1.2.27-10.48.48-10.63.48-1.73-.05-1.85-.07-1.48-1.24-1.54-1.37-.07-1.26-.07-1.26l1.61-.97,1.53-1.3Z"/>
    <polygon class="cls-3" points="17.44 21.66 6.72 22.74 5.55 20.83 18.54 16.7 17.44 21.66"/>
    <path class="cls-6" d="M45.39,19.92c.41-.02.82-.03,1.23-.05,1.07,0,2.14.01,3.21.02.16,0,.33.02.49.03,1.93.35,3.87.68,5.7,1.45.2.14.39.33.67.3.43.26.86.52,1.29.79.09.06.18.12.26.18.25.19.5.39.75.58,1.25,1.19,2.27,2.55,2.98,4.13.22.75.45,1.5.67,2.25.03.24.06.48.09.72.02.51-.08,1.03.15,1.51-.01,6.7-.02,13.41-.04,20.11,0,.45.24,1.02-.4,1.29-3.15,0-6.3.02-9.45.02-.31-1.17-.14-2.36-.15-3.54-.03-5.26,0-10.51-.03-15.77,0-.42-.45-3.58-1.06-4.61-.22-.4-.53-.72-.94-.94-.2-.2-.42-.36-.73-.34-.53-.37-1.11-.51-1.75-.43-.25,0-.5,0-.74-.01-.92-.08-1.78.09-2.52.69,0,0,0-.02,0-.01-.15.1-.31.2-.46.29-.38.18-.63.49-.77.88-.66.83-.9,1.8-.93,2.84-.24,1.88-.1,3.77-.11,5.66-.02,4.68,0,9.36-.02,14.05,0,.39.16.82-.16,1.18-3.29-.1-6.59.15-9.87-.13.09-6.92.18-13.84-.05-20.76-.04-1.01-.24-1.97-.91-2.78,0,0,.02,0,.02,0-.11-.15-.21-.3-.31-.45-.15-.5-.69-.61-.97-.99,1.45-1.19,2.99-2.28,3.94-3.97h0c.38-.23.65-.55.73-1h0c.42-.3.6-.74.8-1.18,1.29,1.36,2.46,1.18,3.62-.21.24-.29.69-.41,1.04-.6.99-.32,1.98-.64,2.97-.95.16-.02.33-.04.49-.05.41-.06.83-.13,1.24-.19Z"/>
    <path class="cls-6" d="M12.97,53.11c0-7.04,0-14.07,0-21.11,0-.73-.09-1.49.27-2.18,3.22,1.17,6.52,1.54,9.92,1.07-.15,1.1-.3,2.19-.29,3.32.03,5.94.02,11.88,0,17.82,0,.53.24,1.17-.76,1.15-3.05-.06-6.09-.05-9.14-.07Z"/>
    <path class="cls-3" d="M20.66,14.49c4.28-1.32,8.68-2.12,13.1-2.76,2.47-.35,4.96-.61,7.44-.93.25-.03.54-.14.68.08.19.32-.08.5-.33.68-2.74,1.94-5.36,4.06-8.2,5.88-.34-.02-.58.08-.58.48,0,0,0,0,0,0-.22,0-.41.04-.48.29,0,0,.02,0,.02,0-2.4,1.11-4.45,2.74-6.47,4.42-1.16,0-2.31.01-3.47.02.24-1.33.37-2.64.38-4.02,0-1.15-.7-2.42.26-3.61.4-.5-.02-.87-.74-.65-.51.15-1.03.64-1.61.14Z"/>
    <path class="cls-3" d="M20.72,14.49c.58.51,1.1.02,1.61-.14.72-.22,1.14.15.74.65-.96,1.19-.25,2.46-.26,3.61,0,1.37-.14,2.69-.38,4.02-.33,0-.66,0-.99,0-.6-.39-1.19-.43-1.77.04-1.3.28-2.61.15-3.92.17.03-.26-.11-.64.36-.62.22,0,.38,0,.54-.18.35-.4.07-.62-.3-1.16-.39-.58-.75-1.12-1.35-1.48,1.7-.52,3.4-1.05,5.1-1.57-1.88-.14-3.57.69-5.35,1.03.01-.19-.07-.51.15-.54,1.81-.27.57-1.37.6-2.13,1.7-.67,3.41-1.31,5.2-1.71Z"/>
    <path class="cls-2" d="M3.05,23.62c.24-.4.5-.76,1.03-.73,1.8.54,3.63.13,5.45.16,1.32.05,2.63.03,3.93-.18.49,0,.98,0,1.48-.01.25,0,.51-.01.76-.02,1.31-.02,2.62.11,3.92-.17.59-.01,1.18-.03,1.77-.04.33,0,.66,0,.99,0,1.16,0,2.31-.01,3.47-.02.02.09.04.19.06.28-1.84.45-3.74.08-5.59.34-1.78.06-3.56.12-5.33.18l-7.52.24c-1.03,0-2.06,0-3.09,0-.1.02-.21.04-.32.05-.33-.03-.66-.06-1-.09Z"/>
    <path class="cls-3" d="M10.38,18.39c.7.35,1.3.72.16,1.29-.21.11-.27.27-.29.47-.27.26-.61.3-.96.31-.62-.73-.74.03-1.01.34-1.44.54-2.86,1.15-4.39,1.38.06-.17.11-.34.17-.51,2.01-1.27,4.05-2.5,6.32-3.29Z"/>
    <path class="cls-4" d="M25.9,22.9c-.02-.09-.04-.19-.06-.28,2.02-1.68,4.07-3.31,6.47-4.42.02.08,0,.16-.06.22-2.15,1.45-4.08,3.22-6.35,4.48Z"/>
    <path class="cls-6" d="M4.05,23.71c.11-.02.21-.04.32-.05-.12,0-.24.02-.35.02.01.01.02.02.04.03Z"/>
    <path class="cls-4" d="M32.77,17.93c0-.4.24-.5.58-.48-.12.25-.3.43-.58.48Z"/>
    <path class="cls-4" d="M32.29,18.21c.07-.25.26-.3.48-.29-.07.25-.27.29-.48.29Z"/>
    <path class="cls-3" d="M13.53,22.91c-1.3.21-2.62.23-3.93.18-.02-.25-.06-.51.22-.67h0c.1.2.29.24.49.24.55-.02,1-.38,1.07-.82.1-.7-.76-.59-1.09-.97,1.54-.59,3.11-1.11,4.73-1.42.6.36.95.9,1.35,1.48.37.54.65.76.3,1.16-.15.18-.32.19-.54.18-.47-.02-.33.36-.36.62-.25,0-.51.01-.76.02-.49-.36-.99-.36-1.48.01Z"/>
    <path class="cls-3" d="M21.39,22.63c-.59.01-1.18.03-1.77.04.58-.47,1.17-.43,1.77-.04Z"/>
    <path class="cls-3" d="M9.76,22.39c-.28.15-.24.41-.22.67-1.82-.03-3.65.38-5.45-.16,1.45-.59,2.89-1.19,4.43-1.52.34.39.44.16.5-.19.15-.04.3-.08.45-.12.25.41.35.85.3,1.32Z"/>
    <path class="cls-1" d="M3.8,22.37c-.17-.14-.1-.19.07-.21-.02.07-.05.14-.07.21Z"/>
    <path class="cls-3" d="M35.8,21.57c-.97-1.29-2.37-2.09-3.54-3.15-2.15,1.45-4.08,3.22-6.35,4.48-1.84.45-3.74.08-5.59.34,0,0,0,0,0,0-1.78.06-3.56.12-5.33.18-2.51.08-5.01.16-7.52.24,1.06.42,2.16.17,3.24.2,2.22.05,2.22.01,2.32,2.22,0,.76,0,1.52,0,2.28-.1.3.13.49.24.72,0,.08,0,.17,0,.25,0,.17-.01.33-.02.5,3.22,1.17,6.52,1.54,9.92,1.07.15-.01.3-.03.45-.04,2.49-.48,4.83-1.35,6.95-2.76,1.45-1.19,2.99-2.28,3.94-3.97.38-.23.65-.55.73-1h0c.42-.3.6-.74.8-1.18-.08-.12-.15-.24-.23-.37ZM18.66,26.6h0c.2-.23.43-.38.68-.47-.25.1-.48.24-.68.47ZM34.5,23.92s0,0,0,0c0,0,0,0,0,0ZM34.66,23.39s-.03.03-.04.05c.01-.02.03-.03.04-.05ZM34.57,23.55s-.01.02-.01.03c0-.01.01-.02.01-.03ZM34.52,23.73s0,.01,0,.02c0,0,0-.01,0-.02Z"/>
    <path class="cls-5" d="M13.47,22.88c.49-.37.98-.37,1.48-.01-.49,0-.98,0-1.48.01Z"/>
    <polygon class="cls-6" points="33.35 17.45 25.67 22.5 4.09 22.9 4.06 21.68 1.1 23.35 1.1 23.92 25.84 23.16 33.35 17.45"/>
    <polygon class="cls-6" points="20.06 17.84 3.38 23.17 3.05 22.5 5.25 21.97 10.8 20.15 19.34 17.69 20.06 17.84"/>
  </g>
  <path class="cls-6" d="M4.45,44.76s.44-9.41-.95-12.21v-9.44h-.47v9.23s-.88,2.62-.88,4.81,2.3,7.62,2.3,7.62Z"/>
</svg>