<?xml version="1.0" encoding="UTF-8"?>
<svg id="Camada_1" xmlns="http://www.w3.org/2000/svg" viewBox="0 0 64 64">
  <defs>
    <style>
      .cls-1 {
        fill: #fafafa;
      }
    </style>
  </defs>
  <path class="cls-1" d="M41.39.37c.47.16.96.29,1.42.49,2.57,1.13,4.08,3.1,4.12,5.91.08,5.72.06,11.44.01,17.16-.03,3.55-3.03,6.38-6.61,6.38-3.58,0-6.57-2.81-6.61-6.38-.06-5.7-.05-11.4,0-17.1.02-3.02,2.07-5.49,5.01-6.27.18-.05.42,0,.56-.2.7,0,1.4,0,2.1,0Z"/>
  <path class="cls-1" d="M63.63,41.51c-.22.22-.2.52-.28.78-.8,2.65-3.21,4.62-5.97,4.66-4.3.07-8.6.03-12.9.04-1.52,0-3.05.04-4.57-.03-3.21-.14-5.96-2.79-6.18-5.9-.26-3.54,1.95-6.57,5.28-7.21.51-.1,1.02-.13,1.53-.13,5.41,0,10.82,0,16.24,0,3.5,0,6.06,2.12,6.75,5.55.01.05.07.09.1.14v2.1Z"/>
  <path class="cls-1" d="M63.63,24.46c-.12.05-.11.16-.13.25-.66,3.42-3.21,5.57-6.71,5.62-1.99.03-3.99,0-5.99.01-.39,0-.53-.09-.52-.51.02-2.06,0-4.11.02-6.17.04-3.49,2.72-6.39,6.07-6.61,3.59-.24,6.56,2.13,7.14,5.67.02.1,0,.21.12.25v1.48Z"/>
  <path class="cls-1" d="M24.71.37c.29.21.65.2.97.3,2.65.84,4.52,3.23,4.6,6.02.06,2.18.02,4.36.03,6.54,0,.29-.06.46-.4.45-2.32-.05-4.65.12-6.97-.08-3.09-.27-5.65-2.89-5.88-5.95-.26-3.29,1.78-6.22,4.88-7.05.23-.06.49-.03.68-.23h2.1Z"/>
  <path class="cls-1" d="M14.54,30.35c-2.34-.05-5.24.12-8.14-.07-3.19-.2-5.83-2.95-6.01-6.16-.19-3.35,2.12-6.36,5.34-6.94.42-.08.86-.13,1.29-.13,5.56,0,11.12-.02,16.68,0,3.23,0,5.88,2.23,6.53,5.41.61,3.03-1.08,6.15-3.99,7.38-.93.39-1.9.51-2.9.51-2.74,0-5.48,0-8.78,0Z"/>
  <path class="cls-1" d="M30.31,48.73c0,2.7.02,5.39,0,8.09-.02,3.3-2.02,5.87-5.11,6.63-4.02.98-8.1-2.09-8.13-6.22-.05-5.7-.04-11.4,0-17.1.02-3.48,2.99-6.35,6.47-6.4,3.6-.05,6.64,2.7,6.74,6.24.08,2.92.02,5.84.02,8.77h.02Z"/>
  <path class="cls-1" d="M37.62,50.32c1.26.07,2.77-.16,4.25.2,3.32.8,5.53,4.02,5.05,7.32-.51,3.48-3.48,5.94-6.96,5.77-3.37-.17-6.15-2.95-6.24-6.32-.06-2.16,0-4.32-.03-6.48,0-.45.18-.5.55-.5,1.05.02,2.1,0,3.38,0Z"/>
  <path class="cls-1" d="M13.71,37.77c-.08,1.29.17,2.84-.24,4.36-.85,3.14-3.78,5.12-7.19,4.83-3-.26-5.55-2.87-5.82-5.94-.35-3.97,2.62-7.25,6.61-7.29,2.04-.02,4.07,0,6.11-.01.43,0,.56.11.55.54-.03,1.09-.01,2.18-.01,3.51Z"/>
</svg>